<?xml version="1.0" encoding="UTF-8" standalone="no"?>
<svg
        width="28.167131"
        height="25.060102"
        viewBox="0 0 28.167132 25.060102"
        version="1.1"
        preserveAspectRatio="xMidYMid"
        id="svg18"
        xmlns="http://www.w3.org/2000/svg"
>
    <defs
            id="defs22"/>
    <path
            d="m 6.651122,0.74077684 c 0.5893379,-0.4675 1.468671,-0.76381 2.3573569,-0.73747 H 16.67925 c 1.066422,0.0132 2.142201,-0.0263 3.208627,0.0197 -0.318057,0.15145 -0.701597,0.21071 -1.038362,0.33582 -1.169324,0.37532 -2.170265,1.00084996 -2.806379,1.78441996 -1.019652,1.25107 -1.375127,2.6865 -1.674475,4.0956 -0.299344,1.38277 -0.289989,2.8116199 -0.926102,4.1548702 -0.430312,0.9416 -1.122642,1.5843 -1.737906,2.012576 -0.391945,0.264503 -0.837553,0.495434 -1.64561,0.5033 -3.1283256,0.03045 -6.2559789,5.39e-4 -9.3761543,0.0061 -0.2338677,0 -0.4583766,0.007 -0.6828887,-0.0263 0.5051508,-0.15803 0.9635242,-0.39508 1.3002888,-0.70455 0.7109524,-0.64529 1.1412645,-1.4091 1.4967379,-2.1795 0.4770855,-1.0403603 0.8232049,-2.1136502 1.0757767,-3.1935202 0.3274121,-1.37618 0.7109524,-2.75894 1.3002895,-4.09561 0.1870944,-0.37532 0.3180557,-0.77039 0.6548242,-1.09962 0.2806363,-0.28972 0.4677275,-0.62553996 0.8232049,-0.87574996 z"
            stroke="#eb7077"
            fill="#EB7077"
            id="path12-5-3"
            style="fill:#0d6efd;stroke:none;stroke-width:0.0238266"/>
    <path
            d="m 14.930378,12.877387 c 0.589338,-0.4675 1.468671,-0.76381 2.357356,-0.73747 h 7.670772 c 1.066421,0.0132 2.1422,-0.0263 3.208626,0.0197 -0.318056,0.15145 -0.701596,0.21071 -1.038361,0.33582 -1.169324,0.37532 -2.170265,1.00085 -2.806379,1.78442 -1.019653,1.25107 -1.375128,2.6865 -1.674475,4.0956 -0.299344,1.38277 -0.28999,2.81162 -0.926102,4.15487 -0.430312,0.9416 -1.122643,1.5843 -1.737906,2.012576 -0.391945,0.264503 -0.837554,0.495434 -1.645611,0.5033 -3.128325,0.03045 -6.255977,5.39e-4 -9.3761531,0.0061 -0.233868,0 -0.458377,0.007 -0.6828891,-0.0263 0.5051511,-0.15803 0.9635241,-0.39508 1.3002891,-0.70455 0.7109521,-0.64529 1.1412641,-1.4091 1.4967381,-2.1795 0.477085,-1.04036 0.823204,-2.11365 1.075776,-3.19352 0.327412,-1.37618 0.710953,-2.75894 1.30029,-4.09561 0.187094,-0.37532 0.318055,-0.77039 0.654824,-1.09962 0.280636,-0.28972 0.467727,-0.62554 0.823205,-0.87575 z"
            stroke="#eb7077"
            fill="#EB7077"
            id="path387"
            style="fill:#ffffff;fill-opacity:1;stroke:none;stroke-width:0.0238266"/>
</svg>
