<?xml version="1.0" encoding="UTF-8" standalone="no"?>
<svg
        width="85.493546"
        height="26.224277"
        viewBox="0 0 85.493546 26.224277"
        version="1.1"
        preserveAspectRatio="xMidYMid"
        id="svg18"
        xmlns="http://www.w3.org/2000/svg"
>
  <defs
     id="defs22" />
  <path
     id="path1195"
     style="font-weight:bold;font-size:22.4534px;font-family:Comfortaa;-inkscape-font-specification:'Comfortaa Bold';fill:#ffffff;fill-opacity:1;stroke-width:1.44858;stroke-dasharray:11.5886, 5.79433"
     d="m 74.158295,0 c -0.459924,0 -0.859519,0.170514 -1.200204,0.511197 -0.323649,0.32364799 -0.484526,0.715832 -0.484526,1.175755 0,0.459923 0.160877,0.859518 0.484526,1.200203 0.340685,0.323649 0.74028,0.486749 1.200204,0.486749 0.459921,0 0.852105,-0.1631 1.175754,-0.486749 0.340684,-0.340685 0.511197,-0.74028 0.511197,-1.200203 0,-0.459923 -0.170513,-0.85210701 -0.511197,-1.175755 C 75.0104,0.170514 74.618216,0 74.158295,0 Z m -1.671394,4.731912 c -0.85171,0 -1.653126,0.178901 -2.40263,0.537868 -0.749504,0.358967 -1.380405,0.852059 -1.891431,1.48025 V 6.238833 c 0,-0.897417 -0.42406,-1.346894 -1.275771,-1.346894 -0.408821,0 -0.725383,0.117842 -0.946827,0.351171 -0.221442,0.233327 -0.331167,0.564963 -0.331167,0.995723 v 12.035369 c 0,0.448708 0.109723,0.789068 0.331167,1.022396 0.221444,0.215384 0.538006,0.322276 0.946827,0.322276 0.425854,0 0.740195,-0.115619 0.944604,-0.348948 0.221442,-0.233327 0.331167,-0.564965 0.331167,-0.995724 v -7.861329 c 0,-1.005107 0.375131,-1.805888 1.124635,-2.398185 0.749505,-0.592294 1.781039,-1.20708 2.964946,-0.886815 0.223051,0.06033 0.484299,0.290514 0.57343,0.91571 v 10.277294 c 0,0.374752 0.119361,0.689091 0.357839,0.944604 0.255513,0.238478 0.569852,0.357838 0.944605,0.357838 0.391784,0 0.708348,-0.11936 0.946826,-0.357838 0.05515,-0.05909 0.10208,-0.121225 0.144468,-0.186698 0.08936,-0.0584 0.176131,-0.128604 0.255599,-0.213369 l 3.856209,-4.854154 4.062909,4.854154 c 0.20441,0.272548 0.511335,0.408957 0.920155,0.408957 0.340684,0 0.613506,-0.102308 0.817916,-0.306718 0.221444,-0.204411 0.331168,-0.46018 0.331168,-0.766797 0,-0.340683 -0.117137,-0.637971 -0.355616,-0.893484 l -4.06291,-4.854154 3.858432,-5.034185 c 0.238478,-0.306616 0.357838,-0.647643 0.357838,-1.022396 0,-0.306615 -0.102309,-0.562386 -0.306719,-0.766796 -0.187376,-0.221445 -0.452784,-0.331167 -0.793467,-0.331167 -0.40882,0 -0.723161,0.143825 -0.944605,0.433406 L 79.490307,10.741817 75.30071,5.73208 C 75.23638,5.65397 75.164064,5.58909 75.08734,5.532047 74.965641,5.397762 74.807132,5.273191 74.607259,5.160873 74.096233,4.873699 73.389712,4.731912 72.486901,4.731912 Z m 2.976058,4.800812 2.340396,2.767134 -2.340396,2.929384 z" />
  <path
     d="m 32.612093,18.821562 q 0.02667,-0.08 0.06667,-0.266666 0.04,-0.186666 0.08,-0.399999 0.04,-0.213333 0.06667,-0.399999 0.02667,-0.186666 0.02667,-0.253333 0,-0.333332 -0.12,-0.599998 -0.106666,-0.279999 -0.186666,-0.613332 v -1.226664 q -0.05333,-0.279999 -0.08,-0.559998 -0.02667,-0.293333 -0.02667,-0.586665 L 32.6121,11.62158 q -0.12,-0.333332 -0.213333,-0.519998 -0.08,-0.2 -0.146666,-0.373333 -0.05333,-0.173333 -0.09333,-0.359999 -0.02667,-0.199999 -0.02667,-0.5466653 V 7.7815899 q -0.01333,-0.1733329 -0.06667,-0.3199992 -0.04,-0.1466663 -0.09333,-0.2933326 -0.05333,-0.1466663 -0.106666,-0.2933326 -0.04,-0.1599996 -0.04,-0.3466658 0,-0.266666 0.106666,-0.4133323 0.12,-0.1466663 0.306666,-0.2266661 0.186666,-0.08 0.399999,-0.133333 0.226666,-0.053333 0.453332,-0.1333329 0.08,-0.026667 0.186667,-0.08 0.119999,-0.066667 0.239999,-0.1199997 0.133333,-0.066667 0.253333,-0.1066664 0.133333,-0.04 0.253332,-0.04 0.06667,0 0.186667,0.053333 0.133333,0.053333 0.159999,0.053333 0.05333,0 0.09333,-0.026667 0.04,-0.026667 0.173333,-0.026667 0.146667,0 0.359999,0.093333 0.213333,0.08 0.306666,0.08 L 35.732085,5.381596 q 0.04,0 0.119999,0.053333 0.09333,0.04 0.12,0.066667 0.06667,0.1866661 0.293333,0.6399983 0.226666,0.4533322 0.426665,0.9866642 0.106667,0.2933326 0.2,0.5866652 0.09333,0.2799993 0.159999,0.533332 0.08,0.2533327 0.133333,0.4533322 0.06667,0.1866662 0.106667,0.2799993 0.08,0.1866662 0.159999,0.3466657 0.08,0.1466663 0.16,0.2799993 0.08,0.133333 0.16,0.266666 0.08,0.1333328 0.146666,0.2933328 0.133333,0.279999 0.279999,0.279999 0.16,0 0.293333,-0.346666 0.09333,-0.2533324 0.226666,-0.6266648 0.146666,-0.3866656 0.319999,-0.7733313 0.186666,-0.399999 0.373333,-0.7466648 0.186666,-0.3599991 0.239999,-0.4399989 0,0 0.01333,-0.013333 0.05333,-0.066667 0.186666,-0.2533327 0.133333,-0.1999995 0.266666,-0.399999 0.146667,-0.2133328 0.266666,-0.3866657 0.12,-0.1866662 0.146667,-0.2399994 0.05333,-0.093333 0.06667,-0.2399994 0.02667,-0.1466663 0.05333,-0.2933326 0.02667,-0.1466662 0.06667,-0.2666659 0.05333,-0.133333 0.159999,-0.1866662 0.306666,-0.026667 0.599999,-0.066667 0.293333,-0.053333 0.639998,-0.1199997 0.2,-0.04 0.386666,-0.066667 0.2,-0.026667 0.413332,-0.026667 0.293333,0 0.573332,0.04 0.279999,0.04 0.506666,0.1066664 0.226666,0.066667 0.373332,0.1599996 0.146666,0.093333 0.266666,0.2533327 0.12,0.1733328 0.199999,0.3999989 0.08,0.2266661 0.08,0.5199987 0,0.9466643 -0.09333,1.7999955 -0.08,0.8533312 -0.133333,1.6666624 -0.06667,1.0799972 -0.12,2.0799942 -0.05333,0.999998 -0.05333,2.026662 0,0.226666 0,0.439999 0,0.213333 0.01333,0.439999 -0.02667,0.04 -0.09333,0.133333 -0.05333,0.08 -0.133333,0.173332 -0.06667,0.09333 -0.133333,0.186667 -0.05333,0.08 -0.06667,0.119999 -0.02667,0.04 -0.05333,0.16 -0.01333,0.106666 -0.01333,0.186666 0,0.06667 0.02667,0.09333 v 3.946657 q 0,0.146666 -0.09333,0.266666 -0.09333,0.133333 -0.2,0.133333 -0.159999,0 -0.266666,-0.133333 -0.106666,-0.133333 -0.173332,-0.319999 -0.05333,-0.186666 -0.08,-0.386666 -0.02667,-0.186666 -0.02667,-0.293333 0,-0.386665 0.09333,-0.799997 0.106667,-0.399999 0.106667,-0.799998 0,-0.213333 -0.06667,-0.439999 -0.06667,-0.226666 -0.06667,-0.453333 0,-0.05333 0.04,-0.199999 0.04,-0.146666 0.08,-0.306666 0.05333,-0.173333 0.08,-0.319999 0.04,-0.146666 0.04,-0.186666 0,-0.106667 -0.09333,-0.266666 -0.08,-0.173333 -0.213333,-0.173333 -0.04,0 -0.09333,0.05333 -0.05333,0.05333 -0.12,0.12 -0.05333,0.05333 -0.119999,0.119999 -0.05333,0.06667 -0.08,0.08 -0.16,0.09333 -0.279999,0.12 -0.106667,0.02667 -0.186667,0.06667 -0.08,0.02667 -0.119999,0.12 -0.02667,0.08 -0.02667,0.293333 0,0.146666 0.08,0.293332 0.08,0.146667 0.16,0.293333 0.09333,0.146666 0.173332,0.306666 0.08,0.146666 0.08,0.306666 -0.06667,0.386665 -0.306666,0.573332 -0.239999,0.186666 -0.506665,0.186666 -0.226666,0 -0.399999,-0.133333 -0.173333,-0.133333 -0.173333,-0.386666 0,-0.359999 -0.04,-0.613332 -0.02667,-0.266666 -0.02667,-0.439999 0,-0.173333 0.05333,-0.306666 0.06667,-0.133333 0.133333,-0.266666 0.06667,-0.146666 0.119999,-0.293332 0.06667,-0.16 0.06667,-0.359999 0,-0.186666 -0.06667,-0.373333 -0.06667,-0.199999 -0.173332,-0.346665 v -3.359992 q -0.01333,-0.159999 -0.04,-0.279999 -0.01333,-0.133333 -0.08,-0.2 -0.08,0.05333 -0.146666,0.133333 -0.05333,0.06667 -0.12,0.16 -0.09333,0.146666 -0.16,0.333332 -0.05333,0.186667 -0.106666,0.386666 -0.04,0.186666 -0.09333,0.359999 -0.04,0.173333 -0.09333,0.306666 -0.02667,0.08 -0.06667,0.173333 -0.02667,0.09333 -0.106666,0.253333 -0.06667,0.146666 -0.2,0.399999 -0.133333,0.239999 -0.359999,0.613331 -0.173333,0.266666 -0.359999,0.479999 -0.173333,0.213333 -0.226666,0.479999 l -0.133333,1.239997 q -0.02667,0.146666 -0.04,0.213333 -0.01333,0.05333 -0.08,0.05333 -0.04,-0.02667 -0.09333,-0.08 -0.05333,-0.06667 -0.106666,-0.06667 -0.04,0 -0.05333,0.02667 -0.05333,0.08 -0.106667,0.306666 -0.05333,0.226666 -0.106666,0.706665 -0.02667,0.239999 -0.12,0.359999 -0.09333,0.12 -0.359999,0.12 -0.12,0 -0.213333,-0.08 -0.09333,-0.08 -0.159999,-0.186666 -0.05333,-0.12 -0.08,-0.24 -0.02667,-0.133333 -0.02667,-0.213332 l 0.12,-0.959998 q 0,-0.01333 0,-0.09333 0,-0.09333 0,-0.2 0.01333,-0.106666 0.01333,-0.213332 0,-0.106667 0,-0.173333 0,-0.05333 0,-0.146667 0.01333,-0.106666 0.01333,-0.226666 0,-0.119999 -0.01333,-0.253332 -0.01333,-0.133333 -0.05333,-0.24 -0.04,-0.119999 -0.12,-0.186666 -0.08,-0.06667 -0.199999,-0.06667 -0.12,0 -0.213333,0.09333 -0.08,0.09333 -0.226666,0.09333 -0.226666,0 -0.386666,-0.16 -0.146666,-0.159999 -0.253332,-0.426665 -0.106667,-0.24 -0.226667,-0.559999 -0.106666,-0.333333 -0.213332,-0.799998 -0.08,-0.346666 -0.173333,-0.586665 -0.09333,-0.253333 -0.293333,-0.253333 0,0.106666 -0.01333,0.359999 0,0.24 -0.01333,0.533332 -0.01333,0.293333 -0.02667,0.573332 0,0.266666 0,0.426666 l 0.12,0.586665 -0.12,0.239999 q 0,0.08 0.02667,0.146667 0.02667,0.06667 0.02667,0.173332 0,0.06667 -0.02667,0.16 -0.02667,0.09333 -0.106667,0.239999 -0.106666,0.173333 -0.199999,0.306666 -0.09333,0.133333 -0.09333,0.24 0,0.06667 0.04,0.186666 0.04,0.12 0.119999,0.146666 v 1.719996 q 0,0.08 -0.04,0.213333 -0.04,0.133333 -0.106666,0.253332 -0.06667,0.12 -0.146666,0.213333 -0.06667,0.09333 -0.146667,0.09333 -0.213332,0 -0.293332,-0.133333 -0.06667,-0.119999 -0.06667,-0.319999 0,-0.16 0.06667,-0.346666 0.06667,-0.186666 0.06667,-0.333332 0,0 -0.01333,-0.106667 0,-0.119999 -0.02667,-0.239999 -0.01333,-0.133333 -0.08,-0.239999 -0.05333,-0.106667 -0.146667,-0.106667 -0.09333,0 -0.186666,0.16 -0.08,0.146666 -0.173333,0.373332 -0.06667,0.186666 -0.08,0.439999 0,0.239999 -0.04,0.426666 -0.04,0.226666 -0.106666,0.346665 -0.06667,0.12 -0.06667,0.186667 l 0.373332,0.839997 q 0,0.09333 -0.02667,0.253333 -0.02667,0.16 -0.09333,0.319999 -0.06667,0.16 -0.173333,0.28 -0.106666,0.119999 -0.266666,0.119999 -0.199999,0 -0.333332,-0.159999 -0.133333,-0.16 -0.2,-0.386666 -0.06667,-0.213333 -0.09333,-0.453332 -0.02667,-0.24 -0.02667,-0.413332 z m 5.25332,-0.359999 q 0,-0.06667 0.01333,-0.16 0.01333,-0.106666 0.05333,-0.199999 0.04,-0.106667 0.09333,-0.173333 0.06667,-0.08 0.16,-0.08 0.16,0 0.253333,0.12 0.09333,0.12 0.146666,0.279999 0.05333,0.16 0.06667,0.319999 0.02667,0.173333 0.02667,0.28 0,0.04 -0.01333,0.119999 0,0.08 -0.04,0.16 -0.02667,0.08 -0.08,0.133333 -0.04,0.05333 -0.12,0.05333 -0.09333,0 -0.199999,-0.09333 -0.09333,-0.09333 -0.173333,-0.226666 -0.08,-0.133333 -0.133333,-0.279999 -0.05333,-0.133333 -0.05333,-0.226667 z"
     style="font-weight:bold;font-size:13.3333px;font-family:'Pieces NFI';-inkscape-font-specification:'Pieces NFI Bold';fill:#0d6efd;stroke-width:0.755906;stroke-dasharray:6.04724, 3.02362"
     id="path292" />
  <path
     d="m 53.265369,16.968233 q 0,-0.173333 -0.01333,-0.386665 0,-0.213333 -0.02667,-0.413333 -0.01333,-0.213332 -0.06667,-0.399999 -0.04,-0.186666 -0.119999,-0.319999 -0.08,-0.133333 -0.186667,-0.173333 -0.09333,-0.04 -0.213332,-0.04 -0.106667,-0.01333 -0.226666,-0.01333 -0.106667,-0.01333 -0.226666,-0.08 -0.09333,-0.04 -0.213333,-0.146666 -0.12,-0.12 -0.226666,-0.266666 -0.09333,-0.146666 -0.16,-0.306666 -0.06667,-0.159999 -0.06667,-0.306666 0,-0.319999 -0.08,-0.493332 -0.06667,-0.186666 -0.333333,-0.186666 -0.279999,0 -0.439999,0.106666 -0.146666,0.106667 -0.226666,0.28 -0.08,0.173333 -0.133333,0.373332 -0.04,0.2 -0.106666,0.373332 -0.05333,0.16 -0.173333,0.32 -0.106666,0.146666 -0.333333,0.173332 -0.186666,0 -0.266666,-0.09333 -0.06667,-0.09333 -0.106666,-0.226666 -0.04,-0.133333 -0.06667,-0.279999 -0.01333,-0.16 -0.06667,-0.279999 -0.05333,-0.106667 -0.186666,-0.16 -0.133333,-0.06667 -0.293333,-0.06667 -0.226666,0 -0.413332,0.119999 -0.186666,0.12 -0.186666,0.413333 0,0.213332 0.04,0.399999 0.04,0.173332 0.08,0.346665 0.05333,0.173333 0.09333,0.359999 0.04,0.173333 0.04,0.386666 0,0.266666 -0.01333,0.573332 0,0.293333 -0.05333,0.546665 -0.05333,0.253333 -0.16,0.426666 -0.09333,0.16 -0.279999,0.16 -0.159999,0 -0.239999,-0.06667 -0.08,-0.06667 -0.12,-0.173333 -0.04,-0.106666 -0.05333,-0.226666 0,-0.133333 0,-0.253333 0,-0.226666 0.09333,-0.386665 0.106666,-0.16 0.106666,-0.359999 0,-0.02667 -0.04,-0.12 -0.02667,-0.106667 -0.08,-0.213333 -0.04,-0.106666 -0.106667,-0.186666 -0.05333,-0.09333 -0.09333,-0.09333 -0.02667,0 -0.06667,0.02667 -0.04,0.01333 -0.08,0.106667 -0.04,0.09333 -0.08,0.279999 -0.02667,0.186666 -0.02667,0.506665 0,0.226667 0.01333,0.546666 0.01333,0.306666 0.04,0.719998 0,0.08 0.01333,0.319999 0.02667,0.226666 0.02667,0.493332 0,0.2 -0.02667,0.399999 -0.01333,0.213333 -0.06667,0.373333 -0.05333,0.173332 -0.159999,0.279999 -0.09333,0.106666 -0.253333,0.106666 -0.106666,0 -0.186666,-0.08 -0.06667,-0.06667 -0.12,-0.173332 -0.04,-0.106667 -0.06667,-0.226667 -0.01333,-0.119999 -0.01333,-0.226666 0,-0.453332 0.09333,-0.853331 0.09333,-0.399999 0.09333,-0.879998 0,-0.119999 -0.02667,-0.373332 -0.01333,-0.253333 -0.12,-0.373332 -0.06667,0.09333 -0.119999,0.266666 -0.04,0.159999 -0.106667,0.186666 -0.106666,0.02667 -0.133333,0.02667 -0.159999,0 -0.226666,-0.159999 -0.05333,-0.16 -0.05333,-0.346666 0,-0.173333 0.04,-0.399999 0,-0.08 -0.02667,-0.239999 -0.01333,-0.16 -0.04,-0.32 -0.01333,-0.159999 -0.04,-0.279999 -0.01333,-0.133333 -0.01333,-0.173333 0,-0.279999 0.04,-0.453332 0.04,-0.186666 0.09333,-0.359999 0.06667,-0.186666 0.146666,-0.413332 0.08,-0.226666 0.146667,-0.586665 0.199999,-1.039998 0.413332,-2.093329 0.213333,-1.05333 0.479999,-2.0933275 0.01333,-0.066667 0.06667,-0.2133328 0.05333,-0.1599996 0.106667,-0.3333325 0.05333,-0.1733329 0.106666,-0.3199992 0.05333,-0.1466663 0.08,-0.2133328 0.08,-0.1733329 0.146666,-0.2933326 0.06667,-0.133333 0.12,-0.2399994 0.06667,-0.1199997 0.12,-0.2399994 0.05333,-0.133333 0.09333,-0.3066659 0.01333,-0.08 0.06667,-0.2799993 0.05333,-0.2133328 0.106667,-0.4399989 0.05333,-0.2266661 0.106666,-0.4266656 0.05333,-0.2133327 0.08,-0.2933325 0.493332,-0.2933326 1.17333,-0.4133323 0.679998,-0.1199997 1.25333,-0.1199997 0.09333,0 0.226666,0 0.133333,-0.013333 0.293333,-0.013333 0.186666,0 0.386666,0.013333 0.213333,0.013333 0.386665,0.066667 0.173333,0.04 0.306666,0.133333 0.133333,0.08 0.173333,0.2133328 0.106667,0.3066658 0.213333,0.626665 0.106666,0.3066659 0.16,0.6133318 0.05333,0.3466658 0.04,0.6933316 0,0.3333325 0.06667,0.7066649 0,0.026667 0.09333,0.133333 0.106666,0.1066664 0.12,0.133333 0.02667,0.066667 0.04,0.1599996 0.02667,0.093333 0.04,0.1866662 0.02667,0.08 0.04,0.1466663 0.02667,0.066667 0.02667,0.08 0.01333,0.053333 0.04,0.2533327 0.04,0.1866661 0.06667,0.4133322 0.04,0.2133328 0.06667,0.4133323 0.04,0.186667 0.06667,0.24 0.01333,0.05333 0.106667,0.226666 0.09333,0.173333 0.186666,0.373332 0.106666,0.2 0.186666,0.386666 0.09333,0.173333 0.12,0.213333 0.01333,0.04 0.05333,0.226666 0.05333,0.186666 0.06667,0.253332 0.01333,0.06667 0.02667,0.24 0.01333,0.173333 0.02667,0.373332 0.02667,0.186666 0.04,0.359999 0.02667,0.16 0.02667,0.226666 0.28,0.146667 0.479999,0.346666 0.213333,0.186666 0.24,0.493332 0.106666,1.039998 0.239999,2.133328 0.133333,1.079998 0.133333,2.133328 0,0.266666 -0.09333,0.453332 -0.09333,0.2 -0.399999,0.2 -0.266666,0 -0.333333,-0.373333 -0.05333,-0.373332 -0.05333,-1.266663 0,-0.346666 -0.04,-0.653332 -0.02667,-0.306666 -0.146666,-0.533332 -0.133333,-0.253332 -0.2,-0.253332 -0.01333,0 -0.02667,0.05333 -0.01333,0.05333 -0.02667,0.319999 0,0.266666 -0.01333,0.813331 0,0.546666 0,1.53333 0,0.04 -0.01333,0.253332 -0.01333,0.213333 -0.05333,0.453333 -0.04,0.239999 -0.119999,0.426665 -0.08,0.2 -0.213333,0.2 -0.186666,0 -0.333333,-0.146667 -0.133333,-0.133333 -0.239999,-0.333332 -0.09333,-0.186666 -0.16,-0.399999 -0.05333,-0.2 -0.06667,-0.333333 z m -4.19999,-5.719985 q 0,0.106666 0.24,0.09333 0.253332,-0.01333 0.519998,0.02667 0.186667,0.02667 0.333333,0.133333 0.16,0.09333 0.226666,0.16 0.133333,0 0.133333,-0.16 -0.08,-0.186666 -0.199999,-0.493332 -0.106667,-0.319999 -0.226667,-0.599998 -0.106666,-0.226666 -0.186666,-0.386666 -0.08,-0.1733327 -0.186666,-0.1733327 -0.02667,0 -0.08,0.053333 -0.05333,0.04 -0.09333,0.08 -0.213333,0.2799997 -0.346666,0.5999987 -0.133333,0.306666 -0.133333,0.666665 z"
     style="font-weight:bold;font-size:13.3333px;font-family:'Pieces NFI';-inkscape-font-specification:'Pieces NFI Bold';fill:#0d6efd;stroke-width:0.755906;stroke-dasharray:6.04724, 3.02362"
     id="path294" />
  <path
     d="m 60.238689,14.701572 q -0.146666,0.16 -0.213333,0.386666 -0.05333,0.213333 -0.05333,0.439999 0,0.16 0.01333,0.319999 0.02667,0.16 0.05333,0.319999 -0.02667,0.106667 -0.12,0.2 -0.09333,0.08 -0.173333,0.08 -0.133333,0 -0.213333,-0.106667 -0.06667,-0.119999 -0.119999,-0.253332 -0.04,-0.146667 -0.08,-0.253333 -0.04,-0.12 -0.09333,-0.12 -0.16,0 -0.213333,0.306666 -0.05333,0.306666 -0.05333,0.666665 0,0.346666 0.133333,0.666665 0.133333,0.306666 0.133333,0.639998 0,0.16 -0.05333,0.386666 -0.05333,0.226666 -0.146667,0.439999 -0.08,0.226666 -0.213333,0.373332 -0.133333,0.16 -0.293332,0.16 -0.186666,0 -0.293333,-0.16 -0.09333,-0.146666 -0.146666,-0.346665 -0.05333,-0.186667 -0.06667,-0.373333 -0.01333,-0.186666 -0.01333,-0.266666 l 0.506666,-2.38666 q 0,-0.146667 -0.106667,-0.226667 -0.09333,-0.09333 -0.439999,-0.159999 -0.133333,-0.02667 -0.226666,-0.08 -0.09333,-0.05333 -0.199999,-0.146666 -0.16,-0.826665 -0.24,-1.679996 -0.06667,-0.853331 -0.106666,-1.706662 -0.02667,-0.866665 -0.05333,-1.733329 -0.01333,-0.8666647 -0.06667,-1.7199959 -0.01333,-0.066667 -0.01333,-0.1066664 0,-0.04 0,-0.08 0,-0.066667 -0.01333,-0.133333 -0.01333,-0.066666 -0.09333,-0.1733329 -0.04,0.066667 -0.106667,0.2799993 -0.06667,0.1999995 -0.159999,0.4133323 -0.09333,0.2133328 -0.213333,0.3866657 Q 56.372032,9.1149199 56.225366,9.1149199 56.052033,9.07492 55.9987,8.9149204 55.945367,8.7549208 55.905367,8.5815879 55.8787,8.3949217 55.8387,8.2615887 q -0.04,-0.1466663 -0.173333,-0.1466663 -0.08,0 -0.106666,0.2133328 -0.02667,0.1999995 -0.08,0.4533322 -0.04,0.2399994 -0.133333,0.4533322 -0.08,0.1999994 -0.266666,0.1999994 -0.146666,0 -0.266666,-0.1333329 Q 54.692037,9.1549198 54.652037,8.9949202 V 8.2482554 q 0,-0.066667 0,-0.1733329 0,-0.1199997 0,-0.2399994 0.01333,-0.1199997 0.01333,-0.2133328 0,-0.093333 0,-0.1199997 0.01333,-0.1866662 0.02667,-0.4666655 0.01333,-0.2933326 0.02667,-0.5733319 0.02667,-0.2799993 0.04,-0.4799988 0.02667,-0.2133328 0.02667,-0.2266661 l 0.359999,-0.5999984 q 0,-0.013333 0.266666,-0.026667 0.279999,-0.013333 0.706665,-0.026667 0.426665,-0.013333 0.959997,-0.026667 0.533332,-0.026667 1.079997,-0.026667 0.546666,-0.013333 1.039998,-0.013333 0.506665,-0.013333 0.866664,-0.013333 0.133333,0 0.493332,0.013333 0.359999,0.013333 0.759998,0.04 0.399999,0.013333 0.759999,0.04 0.359999,0.026667 0.506665,0.04 0.09333,0.1733329 0.146666,0.3199992 0.05333,0.1466663 0.06667,0.3066658 0.02667,0.1466663 0.02667,0.3333325 0.01333,0.1733329 0.01333,0.3866657 0,0.2266661 -0.04,0.5066654 -0.02667,0.2799993 -0.06667,0.4933321 -0.06667,0.2133328 -0.119999,0.3733324 -0.04,0.1466663 -0.04,0.3333325 0.01333,0.2133328 0.05333,0.5199987 0.05333,0.3066659 0.08,0.399999 -0.02667,0.133333 -0.2,0.1733329 -0.173333,0.026667 -0.239999,0.026667 -0.226666,0 -0.306666,-0.1199996 -0.06667,-0.1199997 -0.09333,-0.2799993 -0.02667,-0.1599996 -0.06667,-0.3199992 -0.04,-0.1599996 -0.173333,-0.2399994 -0.186666,-0.093333 -0.293332,-0.093333 -0.106667,0 -0.173333,-0.053333 -0.133333,-0.093333 -0.2,-0.2399994 -0.05333,-0.1599996 -0.293332,-0.3466658 -0.146666,0.1866662 -0.213333,0.4399989 -0.05333,0.2399994 -0.08,0.5199987 -0.02667,0.266666 -0.04,0.533332 0,0.2666659 -0.01333,0.493332 0,0.04 -0.02667,0.1999995 -0.01333,0.1599996 -0.02667,0.5333325 -0.01333,0.359999 -0.02667,0.999997 -0.01333,0.639999 -0.01333,1.639996 z"
     style="font-weight:bold;font-size:13.3333px;font-family:'Pieces NFI';-inkscape-font-specification:'Pieces NFI Bold';fill:#0d6efd;stroke-width:0.755906;stroke-dasharray:6.04724, 3.02362"
     id="path296" />
  <path
     d="m 6.651122,1.9049531 c 0.5893379,-0.4675 1.468671,-0.76381 2.3573569,-0.73747 H 16.67925 c 1.066422,0.0132 2.142201,-0.0263 3.208627,0.0197 -0.318057,0.15145 -0.701597,0.21071 -1.038362,0.33582 -1.169324,0.37532 -2.170265,1.00085 -2.806379,1.78442 -1.019652,1.25107 -1.375127,2.6865 -1.674475,4.0956 -0.299344,1.38277 -0.289989,2.8116199 -0.926102,4.1548699 -0.430312,0.9416 -1.122642,1.5843 -1.737906,2.012576 -0.391945,0.264503 -0.837553,0.495434 -1.64561,0.5033 -3.1283256,0.03045 -6.2559789,5.39e-4 -9.3761543,0.0061 -0.2338677,0 -0.4583766,0.007 -0.6828887,-0.0263 0.5051508,-0.15803 0.9635242,-0.39508 1.3002888,-0.70455 0.7109524,-0.64529 1.1412645,-1.4091 1.4967379,-2.1795 0.4770855,-1.04036 0.8232049,-2.1136499 1.0757767,-3.1935199 0.3274121,-1.37618 0.7109524,-2.75894 1.3002895,-4.09561 0.1870944,-0.37532 0.3180557,-0.77039 0.6548242,-1.09962 0.2806363,-0.28972 0.4677275,-0.62554 0.8232049,-0.87575 z"
     stroke="#eb7077"
     fill="#EB7077"
     id="path12-5-3"
     style="fill:#0d6efd;stroke:none;stroke-width:0.0238266" />
  <path
     d="m 14.930378,14.041563 c 0.589338,-0.4675 1.468671,-0.76381 2.357356,-0.73747 h 7.670772 c 1.066421,0.0132 2.1422,-0.0263 3.208626,0.0197 -0.318056,0.15145 -0.701596,0.21071 -1.038361,0.33582 -1.169324,0.37532 -2.170265,1.00085 -2.806379,1.78442 -1.019653,1.25107 -1.375128,2.6865 -1.674475,4.0956 -0.299344,1.38277 -0.28999,2.81162 -0.926102,4.15487 -0.430312,0.9416 -1.122643,1.5843 -1.737906,2.012576 -0.391945,0.264503 -0.837554,0.495434 -1.645611,0.5033 -3.128325,0.03045 -6.255977,5.39e-4 -9.3761531,0.0061 -0.233868,0 -0.458377,0.007 -0.6828891,-0.0263 0.5051511,-0.15803 0.9635241,-0.39508 1.3002891,-0.70455 0.7109521,-0.64529 1.1412641,-1.4091 1.4967381,-2.1795 0.477085,-1.04036 0.823204,-2.11365 1.075776,-3.19352 0.327412,-1.37618 0.710953,-2.75894 1.30029,-4.09561 0.187094,-0.37532 0.318055,-0.77039 0.654824,-1.09962 0.280636,-0.28972 0.467727,-0.62554 0.823205,-0.87575 z"
     stroke="#eb7077"
     fill="#EB7077"
     id="path387"
     style="fill:#ffffff;fill-opacity:1;stroke:none;stroke-width:0.0238266" />
</svg>
